<?xml version="1.0" encoding="UTF-8"?>
<svg version="1.1" xmlns="http://www.w3.org/2000/svg" width="1029" height="169">
<path d="M0 0 C6.34257749 0.46982055 6.34257749 0.46982055 8.9375 2.5625 C9.288125 3.036875 9.63875 3.51125 10 4 C8.54740857 8.6789684 6.6689866 13.06383661 4.578125 17.484375 C3.88215152 18.9739264 3.18661409 20.4636816 2.49145508 21.95361328 C2.12629791 22.73416077 1.76114075 23.51470825 1.38491821 24.31890869 C-7.33027515 42.98759387 -15.33984803 61.87833129 -23 81 C-23.64871893 82.61687967 -24.29748329 84.23374111 -24.94628906 85.85058594 C-27.51997436 92.26767326 -30.09186572 98.68544913 -32.6472168 105.10986328 C-32.93229095 105.82606842 -33.21736511 106.54227356 -33.51107788 107.28018188 C-34.04468907 108.6214798 -34.57754769 109.96307744 -35.10952759 111.30502319 C-36.01229241 113.57418692 -36.9072605 115.814521 -38 118 C-42.97306516 117.50269348 -46.63799813 116.44697666 -51 114 C-50.40804811 108.45899681 -48.42938128 103.95897449 -46.16015625 98.94140625 C-45.76645844 98.05671158 -45.37276062 97.17201691 -44.96713257 96.26051331 C-43.67278791 93.35789582 -42.36801663 90.4601079 -41.0625 87.5625 C-40.15667108 85.53969017 -39.25115721 83.51673924 -38.34594727 81.49365234 C-27.63032414 57.58883249 -16.7064407 33.77446286 -5.4375 10.125 C-4.99011475 9.18543457 -4.54272949 8.24586914 -4.08178711 7.27783203 C-3.6822583 6.44622559 -3.28272949 5.61461914 -2.87109375 4.7578125 C-2.53005615 4.0477002 -2.18901855 3.33758789 -1.83764648 2.60595703 C-1 1 -1 1 0 0 Z M-10 23 C-9 25 -9 25 -9 25 Z " fill="currentColor" transform="translate(910,20)"/>
<path d="M0 0 C1.53333984 -0.00386719 1.53333984 -0.00386719 3.09765625 -0.0078125 C4.16886719 -0.00007813 5.24007812 0.00765625 6.34375 0.015625 C7.95056641 0.00402344 7.95056641 0.00402344 9.58984375 -0.0078125 C10.61207031 -0.00523438 11.63429688 -0.00265625 12.6875 0 C13.62787109 0.00225586 14.56824219 0.00451172 15.53710938 0.00683594 C17.84375 0.265625 17.84375 0.265625 19.84375 2.265625 C19.99487305 4.50195313 19.99487305 4.50195313 19.85546875 7.296875 C19.80841797 8.33714844 19.76136719 9.37742187 19.71289062 10.44921875 C19.65294922 11.54363281 19.59300781 12.63804688 19.53125 13.765625 C19.48291016 14.79816406 19.43457031 15.83070312 19.38476562 16.89453125 C19.15812701 21.61664729 18.90504049 26.33535287 18.59423828 31.05273438 C17.58945471 46.62752565 17.51490814 62.22569334 17.31768799 77.82733154 C17.25874717 82.48393087 17.19281642 87.1403945 17.125 91.796875 C17.11142456 93.02063843 17.09784912 94.24440186 17.0838623 95.50524902 C17.06714478 96.62822388 17.05042725 97.75119873 17.03320312 98.90820312 C17.01441101 100.39229675 17.01441101 100.39229675 16.99523926 101.90637207 C16.84375 104.265625 16.84375 104.265625 15.84375 106.265625 C11.36459672 106.29448838 6.88546709 106.31237687 2.40625 106.328125 C1.12685547 106.33650391 -0.15253906 106.34488281 -1.47070312 106.35351562 C-2.68564453 106.35673828 -3.90058594 106.35996094 -5.15234375 106.36328125 C-6.27825928 106.36851807 -7.4041748 106.37375488 -8.56420898 106.37915039 C-11.15625 106.265625 -11.15625 106.265625 -12.15625 105.265625 C-12.26021221 102.62987709 -12.29685703 100.02657093 -12.28125 97.390625 C-12.27859131 96.59503174 -12.27593262 95.79943848 -12.27319336 94.97973633 C-12.22676675 88.96367009 -12.02298093 82.96139218 -11.71875 76.953125 C-11.66001709 75.76323975 -11.66001709 75.76323975 -11.60009766 74.54931641 C-11.38423229 70.70095798 -11.05031101 67.02969697 -10.15625 63.265625 C-12.92749036 63.90975114 -15.69824445 64.55585248 -18.46875 65.203125 C-19.64727539 65.47672852 -19.64727539 65.47672852 -20.84960938 65.75585938 C-21.9855957 66.02172852 -21.9855957 66.02172852 -23.14453125 66.29296875 C-23.84102783 66.45531006 -24.53752441 66.61765137 -25.25512695 66.78491211 C-26.9096906 67.20328065 -28.53719108 67.72593869 -30.15625 68.265625 C-30.18130615 69.05622314 -30.2063623 69.84682129 -30.23217773 70.66137695 C-30.34939435 74.30040802 -30.47154245 77.93925825 -30.59375 81.578125 C-30.63306641 82.82142578 -30.67238281 84.06472656 -30.71289062 85.34570312 C-30.96326354 92.68355556 -31.38742596 99.9632116 -32.15625 107.265625 C-35.25389653 108.29817384 -37.41773787 108.39471404 -40.6640625 108.3984375 C-41.73269531 108.39972656 -42.80132812 108.40101563 -43.90234375 108.40234375 C-45.01738281 108.39847656 -46.13242187 108.39460938 -47.28125 108.390625 C-48.40402344 108.39449219 -49.52679688 108.39835937 -50.68359375 108.40234375 C-51.74964844 108.40105469 -52.81570313 108.39976562 -53.9140625 108.3984375 C-54.8952002 108.39730957 -55.87633789 108.39618164 -56.88720703 108.39501953 C-59.15625 108.265625 -59.15625 108.265625 -60.15625 107.265625 C-60.26733331 104.66045643 -60.30890866 102.08999427 -60.29638672 99.484375 C-60.29389357 98.67923462 -60.29140041 97.87409424 -60.28883171 97.04455566 C-60.2094278 87.59436057 -59.57706389 78.18961939 -58.9140625 68.765625 C-58.78406023 66.86801992 -58.65433546 64.97039581 -58.52487183 63.07275391 C-58.2550025 59.13966878 -57.98043369 55.20694687 -57.70263672 51.27441406 C-57.34682379 46.22906894 -57.00531797 41.18286412 -56.66742134 36.1362915 C-56.40447583 32.23777882 -56.13304496 28.33989224 -55.85909653 24.44213867 C-55.72942782 22.57954749 -55.6026745 20.71675097 -55.47888565 18.85375977 C-55.30608848 16.26898493 -55.12164234 13.68530207 -54.93408203 11.1015625 C-54.88516815 10.33286835 -54.83625427 9.56417419 -54.78585815 8.77218628 C-54.38466335 3.49403835 -54.38466335 3.49403835 -52.15625 1.265625 C-49.83374023 1.02270508 -49.83374023 1.02270508 -46.96484375 1.03515625 C-45.93810547 1.03708984 -44.91136719 1.03902344 -43.85351562 1.04101562 C-42.77779297 1.05326172 -41.70207031 1.06550781 -40.59375 1.078125 C-39.51416016 1.07876953 -38.43457031 1.07941406 -37.32226562 1.08007812 C-29.29639598 1.12547902 -29.29639598 1.12547902 -28.15625 2.265625 C-27.67232022 11.21387811 -28.40466996 20.16580769 -29.15625 29.078125 C-29.25164062 30.25955078 -29.34703125 31.44097656 -29.4453125 32.65820312 C-29.67766494 35.52775571 -29.91469474 38.39683503 -30.15625 41.265625 C-29.13917969 41.15734375 -29.13917969 41.15734375 -28.1015625 41.046875 C-21.76012527 40.41448791 -15.52738353 40.14124278 -9.15625 40.265625 C-9.11866577 39.17846191 -9.11866577 39.17846191 -9.08032227 38.06933594 C-8.96276383 34.71798755 -8.84077697 31.36681354 -8.71875 28.015625 C-8.67943359 26.87609375 -8.64011719 25.7365625 -8.59960938 24.5625 C-8.38977282 18.8807717 -8.13179068 13.20396176 -7.74609375 7.53125 C-7.68156006 6.56477539 -7.61702637 5.59830078 -7.55053711 4.60253906 C-6.75478285 -0.11384472 -4.17404929 0.01001314 0 0 Z M-39.15625 6.265625 C-39.15625 6.595625 -39.15625 6.925625 -39.15625 7.265625 C-37.17625 7.265625 -35.19625 7.265625 -33.15625 7.265625 C-33.15625 6.935625 -33.15625 6.605625 -33.15625 6.265625 C-35.13625 6.265625 -37.11625 6.265625 -39.15625 6.265625 Z M-48.15625 7.265625 C-47.15625 9.265625 -47.15625 9.265625 -47.15625 9.265625 Z M-12.15625 46.265625 C-12.48625 46.925625 -12.81625 47.585625 -13.15625 48.265625 C-12.49625 48.265625 -11.83625 48.265625 -11.15625 48.265625 C-11.48625 47.605625 -11.81625 46.945625 -12.15625 46.265625 Z M-18.15625 49.265625 C-17.16625 50.255625 -16.17625 51.245625 -15.15625 52.265625 C-14.16625 51.935625 -13.17625 51.605625 -12.15625 51.265625 C-12.48625 50.605625 -12.81625 49.945625 -13.15625 49.265625 C-14.80625 49.265625 -16.45625 49.265625 -18.15625 49.265625 Z M12.84375 61.265625 C12.84375 61.925625 12.84375 62.585625 12.84375 63.265625 C13.50375 63.265625 14.16375 63.265625 14.84375 63.265625 C14.84375 62.605625 14.84375 61.945625 14.84375 61.265625 C14.18375 61.265625 13.52375 61.265625 12.84375 61.265625 Z M-46.15625 66.265625 C-45.82625 66.925625 -45.49625 67.585625 -45.15625 68.265625 C-44.49625 68.265625 -43.83625 68.265625 -43.15625 68.265625 C-43.15625 67.605625 -43.15625 66.945625 -43.15625 66.265625 C-44.14625 66.265625 -45.13625 66.265625 -46.15625 66.265625 Z " fill="currentColor" transform="translate(497.15625,29.734375)"/>
<path d="M0 0 C1.46083008 0.00773437 1.46083008 0.00773437 2.95117188 0.015625 C3.96630859 0.03625 4.98144531 0.056875 6.02734375 0.078125 C7.55584961 0.08585937 7.55584961 0.08585937 9.11523438 0.09375 C16.65600404 0.17370515 16.65600404 0.17370515 18.96484375 1.328125 C19.08787287 10.65190966 18.76208985 19.87165317 18.16720581 29.17443848 C16.92478381 48.86125614 16.56551498 68.54841788 16.30688477 88.26977539 C16.28242783 89.95693413 16.28242783 89.95693413 16.25747681 91.67817688 C16.22701096 93.81181506 16.20086214 95.94552031 16.17953491 98.07926941 C16.16596954 99.02216324 16.15240417 99.96505707 16.13842773 100.93652344 C16.12415993 102.17810211 16.12415993 102.17810211 16.10960388 103.44476318 C15.96484375 105.328125 15.96484375 105.328125 14.96484375 106.328125 C12.97727347 106.42795558 10.98616855 106.45893253 8.99609375 106.4609375 C7.78566406 106.46222656 6.57523438 106.46351563 5.328125 106.46484375 C4.05324219 106.46097656 2.77835938 106.45710938 1.46484375 106.453125 C0.18996094 106.45699219 -1.08492187 106.46085937 -2.3984375 106.46484375 C-3.60886719 106.46355469 -4.81929687 106.46226562 -6.06640625 106.4609375 C-7.18595703 106.45980957 -8.30550781 106.45868164 -9.45898438 106.45751953 C-12.03515625 106.328125 -12.03515625 106.328125 -13.03515625 105.328125 C-13.55655197 95.89412122 -12.73912 86.41924889 -12.03515625 77.015625 C-11.93837697 75.67776506 -11.8420208 74.33987444 -11.74609375 73.00195312 C-11.51324653 69.77701914 -11.27620366 66.55245462 -11.03515625 63.328125 C-13.80639661 63.97225114 -16.5771507 64.61835248 -19.34765625 65.265625 C-20.52618164 65.53922852 -20.52618164 65.53922852 -21.72851562 65.81835938 C-22.86450195 66.08422852 -22.86450195 66.08422852 -24.0234375 66.35546875 C-24.71993408 66.51781006 -25.41643066 66.68015137 -26.1340332 66.84741211 C-27.78859685 67.26578065 -29.41609733 67.78843869 -31.03515625 68.328125 C-31.04973877 69.43325439 -31.06432129 70.53838379 -31.0793457 71.67700195 C-31.13729891 75.77547639 -31.21453144 79.87339967 -31.29760742 83.97143555 C-31.33087089 85.74543312 -31.35889843 87.5195369 -31.3815918 89.29370117 C-31.41511227 91.84339676 -31.4674249 94.39211792 -31.5234375 96.94140625 C-31.53302238 98.13217522 -31.53302238 98.13217522 -31.5428009 99.34700012 C-31.68678076 104.73359025 -31.68678076 104.73359025 -33.20922852 107.33178711 C-35.80171676 108.74640732 -37.81653049 108.68309597 -40.76171875 108.65625 C-41.87546875 108.65109375 -42.98921875 108.6459375 -44.13671875 108.640625 C-45.29945313 108.62 -46.4621875 108.599375 -47.66015625 108.578125 C-48.830625 108.57296875 -50.00109375 108.5678125 -51.20703125 108.5625 C-59.88128476 108.48199649 -59.88128476 108.48199649 -61.03515625 107.328125 C-61.70606729 95.78594873 -60.56654665 84.1102122 -59.79296875 72.59765625 C-59.66309164 70.62946017 -59.53336409 68.66125421 -59.40377808 66.69303894 C-59.13298895 62.59908737 -58.85844415 58.50540772 -58.58154297 54.41186523 C-58.22704162 49.16237643 -57.88514375 43.91214725 -57.54632759 38.66162586 C-57.28306489 34.61126723 -57.01169979 30.56148173 -56.73800278 26.51181602 C-56.60835755 24.57468268 -56.48160332 22.6373536 -56.3577919 20.69983864 C-56.18466108 18.00472712 -56.00028088 15.31061427 -55.81298828 12.61645508 C-55.7640744 11.81701981 -55.71516052 11.01758453 -55.6647644 10.19392395 C-55.39432241 6.47138148 -55.14731934 4.49636964 -53.03515625 1.328125 C-50.71264648 0.97167969 -50.71264648 0.97167969 -47.84375 1 C-46.30364258 1.00773437 -46.30364258 1.00773437 -44.73242188 1.015625 C-43.65669922 1.03625 -42.58097656 1.056875 -41.47265625 1.078125 C-39.85327148 1.08585937 -39.85327148 1.08585937 -38.20117188 1.09375 C-30.18895585 1.1743254 -30.18895585 1.1743254 -29.03515625 2.328125 C-28.25087747 15.35080048 -29.75576422 28.3844886 -31.03515625 41.328125 C-30.01808594 41.21984375 -30.01808594 41.21984375 -28.98046875 41.109375 C-22.63903152 40.47698791 -16.40628978 40.20374278 -10.03515625 40.328125 C-9.99028076 39.22299561 -9.94540527 38.11786621 -9.89916992 36.97924805 C-9.72896422 32.88039321 -9.54004871 28.78257811 -9.34545898 24.68481445 C-9.26384809 22.91095379 -9.18731771 21.1368518 -9.1159668 19.36254883 C-9.01253859 16.81250845 -8.89088354 14.26389346 -8.765625 11.71484375 C-8.7373613 10.92099777 -8.7090976 10.12715179 -8.67997742 9.30924988 C-8.38940646 3.90474766 -8.38940646 3.90474766 -6.80419922 1.32446289 C-4.42556786 -0.01519962 -2.72533293 -0.02851435 0 0 Z M-40.03515625 6.328125 C-40.03515625 6.658125 -40.03515625 6.988125 -40.03515625 7.328125 C-38.05515625 7.328125 -36.07515625 7.328125 -34.03515625 7.328125 C-34.03515625 6.998125 -34.03515625 6.668125 -34.03515625 6.328125 C-36.01515625 6.328125 -37.99515625 6.328125 -40.03515625 6.328125 Z M-49.03515625 7.328125 C-49.03515625 7.988125 -49.03515625 8.648125 -49.03515625 9.328125 C-48.37515625 8.998125 -47.71515625 8.668125 -47.03515625 8.328125 C-47.69515625 7.998125 -48.35515625 7.668125 -49.03515625 7.328125 Z M-37.03515625 22.328125 C-36.37515625 22.988125 -35.71515625 23.648125 -35.03515625 24.328125 C-35.03515625 23.668125 -35.03515625 23.008125 -35.03515625 22.328125 C-35.69515625 22.328125 -36.35515625 22.328125 -37.03515625 22.328125 Z M-13.03515625 46.328125 C-13.36515625 46.988125 -13.69515625 47.648125 -14.03515625 48.328125 C-13.04515625 47.998125 -12.05515625 47.668125 -11.03515625 47.328125 C-11.69515625 46.998125 -12.35515625 46.668125 -13.03515625 46.328125 Z M-18.03515625 49.328125 C-17.04515625 50.318125 -16.05515625 51.308125 -15.03515625 52.328125 C-14.37515625 51.998125 -13.71515625 51.668125 -13.03515625 51.328125 C-13.03515625 50.668125 -13.03515625 50.008125 -13.03515625 49.328125 C-14.68515625 49.328125 -16.33515625 49.328125 -18.03515625 49.328125 Z M12.96484375 60.328125 C13.96484375 63.328125 13.96484375 63.328125 13.96484375 63.328125 Z M-46.03515625 66.328125 C-46.03515625 66.988125 -46.03515625 67.648125 -46.03515625 68.328125 C-45.37515625 68.328125 -44.71515625 68.328125 -44.03515625 68.328125 C-44.03515625 67.668125 -44.03515625 67.008125 -44.03515625 66.328125 C-44.69515625 66.328125 -45.35515625 66.328125 -46.03515625 66.328125 Z M-9.03515625 100.328125 C-9.36515625 100.988125 -9.69515625 101.648125 -10.03515625 102.328125 C-9.04515625 101.998125 -8.05515625 101.668125 -7.03515625 101.328125 C-7.69515625 100.998125 -8.35515625 100.668125 -9.03515625 100.328125 Z " fill="currentColor" transform="translate(833.03515625,29.671875)"/>
<path d="M0 0 C8.46235913 7.09366453 11.74828198 15.7890502 12.875 26.5625 C13.33395845 36.02152168 11.18810561 43.58312757 7 52 C6.34 52 5.68 52 5 52 C4.835 52.70125 4.67 53.4025 4.5 54.125 C0.05192936 62.65046874 -10.21993647 65.56497421 -18.84814453 68.36572266 C-24.47749199 70.02501976 -30.22128151 71.01401058 -36 72 C-36.01981934 72.80219971 -36.03963867 73.60439941 -36.06005859 74.4309082 C-36.15519495 78.05844177 -36.2649208 81.68539045 -36.375 85.3125 C-36.4059375 86.57513672 -36.436875 87.83777344 -36.46875 89.13867188 C-36.50742188 90.34716797 -36.54609375 91.55566406 -36.5859375 92.80078125 C-36.6173584 93.91622314 -36.6487793 95.03166504 -36.68115234 96.1809082 C-37 99 -37 99 -39 102 C-41.24658203 102.34057617 -41.24658203 102.34057617 -44.0078125 102.29296875 C-44.99394531 102.28330078 -45.98007813 102.27363281 -46.99609375 102.26367188 C-48.02863281 102.23853516 -49.06117187 102.21339844 -50.125 102.1875 C-51.68541016 102.16719727 -51.68541016 102.16719727 -53.27734375 102.14648438 C-55.85207627 102.11105228 -58.4257833 102.06165221 -61 102 C-63.50802382 98.23796427 -63.06060239 94.7288163 -62.71875 90.421875 C-62.60573451 88.70392828 -62.49527475 86.98581241 -62.38671875 85.26757812 C-62.32339355 84.28829346 -62.26006836 83.30900879 -62.19482422 82.30004883 C-61.8493393 76.44801925 -61.61712566 70.59086127 -61.3737793 64.73387146 C-61.24927978 61.74918857 -61.12082136 58.76468062 -60.99252319 55.780159 C-60.75984116 50.36591767 -60.52912263 44.95159718 -60.30224609 39.53710938 C-60.14199409 35.71550209 -59.9783378 31.89405337 -59.81248474 28.07268524 C-59.75062912 26.63274223 -59.6900252 25.19274483 -59.63075256 23.75269318 C-59.54806853 21.74677741 -59.46064754 19.74105863 -59.37304688 17.73535156 C-59.32498901 16.60019104 -59.27693115 15.46503052 -59.22741699 14.29547119 C-58.98584159 10.79483228 -58.71292194 7.43915064 -58 4 C-53.37183375 0.91455583 -48.18529054 0.36899456 -42.78027344 -0.71435547 C-40.79527284 -1.11584308 -38.81595492 -1.53956181 -36.8359375 -1.96484375 C-24.99242926 -4.36427706 -10.71423483 -6.99165236 0 0 Z M-34 22 C-34.84327749 30.35748222 -35.12190678 38.60197746 -35 47 C-27.17545009 45.78142255 -20.61753914 44.07490827 -14.5 38.875 C-12.27778763 34.61575963 -12.33507219 30.70861668 -13 26 C-14.16432069 23.51949071 -15.09425952 21.90574048 -17 20 C-22.99251613 19.67897235 -28.20694363 20.4980965 -34 22 Z M-8 27 C-7 29 -7 29 -7 29 Z M-7 30 C-6 32 -6 32 -6 32 Z M-53 54 C-52.67 54.66 -52.34 55.32 -52 56 C-51.67 55.34 -51.34 54.68 -51 54 C-51.66 54 -52.32 54 -53 54 Z M-21 62 C-20 64 -20 64 -20 64 Z M-55 70 C-55.67753075 73.35206538 -56.3400352 76.70693575 -57 80.0625 C-57.28617187 81.47692383 -57.28617187 81.47692383 -57.578125 82.91992188 C-58.57847138 88.04669705 -59.231817 92.77687319 -59 98 C-57.35 98.33 -55.7 98.66 -54 99 C-54 89.43 -54 79.86 -54 70 C-54.33 70 -54.66 70 -55 70 Z " fill="currentColor" transform="translate(166,36)"/>
<path d="M0 0 C0.91112549 -0.01756348 1.82225098 -0.03512695 2.76098633 -0.05322266 C9.70405426 -0.04688022 16.03825572 0.89928867 21.8671875 4.890625 C29.15168728 12.64626158 30.90254236 20.5455517 30.7734375 31.0546875 C29.95731836 43.65919429 24.93037641 53.009155 15.5625 61.3125 C14.9025 61.3125 14.2425 61.3125 13.5625 61.3125 C14.3052417 62.6442627 14.3052417 62.6442627 15.06298828 64.00292969 C16.89434376 67.29653636 18.70443555 70.60142575 20.50830078 73.91015625 C21.2922489 75.34106445 22.08194327 76.76883993 22.87744141 78.19335938 C24.01947001 80.24074149 25.14040904 82.29847372 26.2578125 84.359375 C26.61811554 84.99494324 26.97841858 85.63051147 27.34963989 86.28533936 C29.71145705 90.70943264 29.71145705 90.70943264 29.00488281 93.57006836 C26.28886277 96.85108309 22.74719231 98.85140915 19.1875 101.125 C18.03507812 101.8974707 18.03507812 101.8974707 16.859375 102.68554688 C16.11429688 103.16701172 15.36921875 103.64847656 14.6015625 104.14453125 C13.92303223 104.58514893 13.24450195 105.0257666 12.54541016 105.47973633 C10.5625 106.3125 10.5625 106.3125 8.42407227 106.13769531 C5.18615683 104.70239641 4.2643421 101.32374035 2.875 98.25 C2.18727933 96.79902865 1.49574303 95.34986083 0.80078125 93.90234375 C0.44064941 93.15065918 0.08051758 92.39897461 -0.29052734 91.62451172 C-2.19998198 87.77552589 -4.31136288 84.04497665 -6.4375 80.3125 C-7.03437622 79.26243774 -7.03437622 79.26243774 -7.64331055 78.19116211 C-8.57149347 76.5631051 -9.5039859 74.93750603 -10.4375 73.3125 C-13.0775 73.6425 -15.7175 73.9725 -18.4375 74.3125 C-18.49284912 75.21605225 -18.54819824 76.11960449 -18.60522461 77.05053711 C-18.81213117 80.39226107 -19.02317294 83.73366964 -19.23706055 87.07495117 C-19.32889998 88.52308841 -19.41907375 89.97133225 -19.50756836 91.41967773 C-19.63481306 93.49753399 -19.76797881 95.57493733 -19.90234375 97.65234375 C-19.980896 98.90394287 -20.05944824 100.15554199 -20.14038086 101.44506836 C-20.4375 104.3125 -20.4375 104.3125 -21.4375 105.3125 C-25.07649175 105.56406269 -28.72833673 105.49772226 -32.375 105.5 C-33.40302734 105.51224609 -34.43105469 105.52449219 -35.49023438 105.53710938 C-36.47185547 105.53904297 -37.45347656 105.54097656 -38.46484375 105.54296875 C-39.82210571 105.54913208 -39.82210571 105.54913208 -41.20678711 105.55541992 C-43.4375 105.3125 -43.4375 105.3125 -45.4375 103.3125 C-45.54443359 100.73291016 -45.54443359 100.73291016 -45.3359375 97.3515625 C-45.25980225 96.04050537 -45.18366699 94.72944824 -45.10522461 93.37866211 C-45.00801489 91.89825072 -44.91042665 90.41786414 -44.8125 88.9375 C-44.71748043 87.3927024 -44.62318415 85.84786017 -44.52954102 84.30297852 C-44.24859053 79.73421871 -43.95103504 75.16663768 -43.65155029 70.59906006 C-43.41659732 66.99155715 -43.18669814 63.38375316 -42.95751953 59.77587891 C-42.48149254 52.2849235 -41.99720077 44.79452473 -41.50867462 37.30437469 C-41.37482135 35.24725442 -41.24199073 33.19007 -41.10931396 31.13287354 C-40.85793565 27.24318675 -40.59930527 23.35400007 -40.33984375 19.46484375 C-40.26383438 18.28199295 -40.18782501 17.09914215 -40.10951233 15.88044739 C-40.03590988 14.79446762 -39.96230743 13.70848785 -39.88647461 12.58959961 C-39.79226479 11.16362709 -39.79226479 11.16362709 -39.69615173 9.70884705 C-39.4375 7.3125 -39.4375 7.3125 -38.4375 4.3125 C-25.63554993 1.7629591 -13.04997335 0.13368853 0 0 Z M-16.4375 26.3125 C-16.66464004 27.94316766 -16.83205086 29.58226003 -16.97265625 31.22265625 C-17.05966797 32.21201172 -17.14667969 33.20136719 -17.23632812 34.22070312 C-17.32333984 35.26162109 -17.41035156 36.30253906 -17.5 37.375 C-17.59087891 38.41978516 -17.68175781 39.46457031 -17.77539062 40.54101562 C-18.00010908 43.1311915 -18.2206231 45.72165767 -18.4375 48.3125 C-16.83791663 48.00716267 -15.23910344 47.69778873 -13.640625 47.38671875 C-12.75020508 47.21487061 -11.85978516 47.04302246 -10.94238281 46.8659668 C-4.19618447 45.37535942 -0.26504259 41.85828926 3.5625 36.3125 C5.60691758 31.95700167 5.85998829 28.96183303 4.5625 24.3125 C-0.30944697 21.87652651 -12.41680164 22.29180164 -16.4375 26.3125 Z M5.5625 40.3125 C6.5625 42.3125 6.5625 42.3125 6.5625 42.3125 Z M22.5625 87.3125 C23.5625 89.3125 23.5625 89.3125 23.5625 89.3125 Z " fill="currentColor" transform="translate(230.4375,31.6875)"/>
<path d="M0 0 C1.2684375 -0.03738281 2.536875 -0.07476563 3.84375 -0.11328125 C8.27064873 0.40224435 10.17722107 1.34906655 13.5 4.3125 C16.61751911 9.32304323 18.45415698 14.72456012 19.89453125 20.41015625 C20.10052444 21.2094606 20.30651764 22.00876495 20.51875305 22.83229065 C23.54052899 35.00564593 25.62225369 47.38968531 27.82592773 59.73138428 C28.43071019 63.10781406 29.04511662 66.48249211 29.65820312 69.85742188 C31.97024006 82.61333786 31.97024006 82.61333786 32.92074585 88.052948 C33.31640337 90.2793736 33.7322313 92.50228467 34.16543579 94.72171021 C34.36712372 95.79589203 34.56881165 96.87007385 34.77661133 97.97680664 C34.96355057 98.93277237 35.15048981 99.8887381 35.34309387 100.87367249 C35.5 103.3125 35.5 103.3125 33.5 106.3125 C30.79443359 106.65307617 30.79443359 106.65307617 27.3984375 106.60546875 C26.18671875 106.59580078 24.975 106.58613281 23.7265625 106.57617188 C21.82003906 106.5384668 21.82003906 106.5384668 19.875 106.5 C18.59625 106.48646484 17.3175 106.47292969 16 106.45898438 C12.83291718 106.42353196 9.66666459 106.37411441 6.5 106.3125 C5.43097891 104.17445782 5.20351688 102.67709453 4.9375 100.3125 C4.85371094 99.61125 4.76992188 98.91 4.68359375 98.1875 C4.40959548 93.89680368 4.46713981 89.61040405 4.5 85.3125 C3.87955811 85.43367188 3.25911621 85.55484375 2.61987305 85.6796875 C-0.19036469 86.22684602 -3.00141343 86.76972007 -5.8125 87.3125 C-6.78896484 87.50328125 -7.76542969 87.6940625 -8.77148438 87.890625 C-10.17817383 88.16132813 -10.17817383 88.16132813 -11.61328125 88.4375 C-12.47735596 88.60507813 -13.34143066 88.77265625 -14.23168945 88.9453125 C-16.5 89.3125 -16.5 89.3125 -19.5 89.3125 C-19.603125 90.4675 -19.70625 91.6225 -19.8125 92.8125 C-20.38835994 97.36260456 -21.59431629 101.13465493 -23.5 105.3125 C-26.69296825 106.37682275 -28.70444941 106.35038336 -32.04296875 106.19140625 C-33.11611328 106.14306641 -34.18925781 106.09472656 -35.29492188 106.04492188 C-36.41447266 105.98884766 -37.53402344 105.93277344 -38.6875 105.875 C-39.81865234 105.82279297 -40.94980469 105.77058594 -42.11523438 105.71679688 C-44.9104328 105.58706193 -47.7052794 105.45209359 -50.5 105.3125 C-52.05629014 100.49002481 -50.73607088 96.61267304 -49.2890625 91.953125 C-49.04594833 91.14030563 -48.80283417 90.32748627 -48.55235291 89.49003601 C-47.75601756 86.84345173 -46.94177235 84.20284297 -46.125 81.5625 C-45.56497972 79.72991225 -45.00500275 77.89731126 -44.44506836 76.06469727 C-38.65160016 57.21528736 -32.05355693 38.79755876 -24.55807495 20.55715942 C-23.98298988 19.15695316 -23.41092855 17.75550074 -22.84207153 16.35275269 C-22.04643139 14.39902161 -21.23483294 12.45274923 -20.41796875 10.5078125 C-19.95156982 9.38391113 -19.4851709 8.26000977 -19.00463867 7.10205078 C-17.44817031 4.21640945 -16.30939538 2.94123982 -13.5 1.3125 C-9.03362378 0.23981695 -4.58249373 0.08848311 0 0 Z M7.5 14.3125 C7.5 14.9725 7.5 15.6325 7.5 16.3125 C8.16 16.3125 8.82 16.3125 9.5 16.3125 C9.5 15.6525 9.5 14.9925 9.5 14.3125 C8.84 14.3125 8.18 14.3125 7.5 14.3125 Z M-7.5 35.3125 C-6.84 35.9725 -6.18 36.6325 -5.5 37.3125 C-5.17 36.6525 -4.84 35.9925 -4.5 35.3125 C-5.49 35.3125 -6.48 35.3125 -7.5 35.3125 Z M-4.5 39.3125 C-5.5094696 42.39281416 -6.50589621 45.4771959 -7.5 48.5625 C-7.92925781 49.87154297 -7.92925781 49.87154297 -8.3671875 51.20703125 C-8.63789063 52.05136719 -8.90859375 52.89570312 -9.1875 53.765625 C-9.56455078 54.92819824 -9.56455078 54.92819824 -9.94921875 56.11425781 C-10.66202838 58.58147832 -10.66202838 58.58147832 -10.5 62.3125 C-6.87 62.3125 -3.24 62.3125 0.5 62.3125 C0.21638858 59.60310578 -0.0766105 56.89527339 -0.375 54.1875 C-0.45363281 53.42695312 -0.53226562 52.66640625 -0.61328125 51.8828125 C-1.10973665 47.45290279 -1.90400079 43.51038029 -3.5 39.3125 C-3.83 39.3125 -4.16 39.3125 -4.5 39.3125 Z M-9.5 42.3125 C-11.94133502 47.01433042 -14.19891974 51.76612694 -16.3125 56.625 C-16.75207031 57.63175781 -17.19164062 58.63851562 -17.64453125 59.67578125 C-18.80874919 62.37552542 -18.80874919 62.37552542 -17.5 65.3125 C-13.85329853 57.78306459 -10.58852505 50.42843505 -8.5 42.3125 C-8.83 42.3125 -9.16 42.3125 -9.5 42.3125 Z M7.5 53.3125 C8.5 55.3125 8.5 55.3125 8.5 55.3125 Z M14.5 56.3125 C13.51 57.7975 13.51 57.7975 12.5 59.3125 C13.49 59.3125 14.48 59.3125 15.5 59.3125 C15.17 58.3225 14.84 57.3325 14.5 56.3125 Z M-21.5 57.3125 C-20.5 59.3125 -20.5 59.3125 -20.5 59.3125 Z M11.5 65.3125 C12.5 67.3125 12.5 67.3125 12.5 67.3125 Z M8.5 71.3125 C8.17 71.9725 7.84 72.6325 7.5 73.3125 C8.16 73.3125 8.82 73.3125 9.5 73.3125 C9.17 72.6525 8.84 71.9925 8.5 71.3125 Z M15.5 77.3125 C16.16 77.9725 16.82 78.6325 17.5 79.3125 C17.5 78.6525 17.5 77.9925 17.5 77.3125 C16.84 77.3125 16.18 77.3125 15.5 77.3125 Z M-24.5 79.3125 C-24.5 79.9725 -24.5 80.6325 -24.5 81.3125 C-23.51 81.3125 -22.52 81.3125 -21.5 81.3125 C-21.5 80.6525 -21.5 79.9925 -21.5 79.3125 C-22.49 79.3125 -23.48 79.3125 -24.5 79.3125 Z M18.5 79.3125 C17.51 79.8075 17.51 79.8075 16.5 80.3125 C16.83 81.6325 17.16 82.9525 17.5 84.3125 C16.84 84.3125 16.18 84.3125 15.5 84.3125 C15.5 86.2925 15.5 88.2725 15.5 90.3125 C16.16 90.3125 16.82 90.3125 17.5 90.3125 C17.5 90.9725 17.5 91.6325 17.5 92.3125 C18.16 92.3125 18.82 92.3125 19.5 92.3125 C20.82 94.9525 22.14 97.5925 23.5 100.3125 C24.16 100.3125 24.82 100.3125 25.5 100.3125 C24.51 94.3725 23.52 88.4325 22.5 82.3125 C21.51 82.6425 20.52 82.9725 19.5 83.3125 C19.5 82.6525 19.5 81.9925 19.5 81.3125 C20.16 80.9825 20.82 80.6525 21.5 80.3125 C20.51 79.9825 19.52 79.6525 18.5 79.3125 Z M-31.5 88.3125 C-31.83 88.9725 -32.16 89.6325 -32.5 90.3125 C-31.51 89.9825 -30.52 89.6525 -29.5 89.3125 C-30.16 88.9825 -30.82 88.6525 -31.5 88.3125 Z " fill="currentColor" transform="translate(320.5,31.6875)"/>
<path d="M0 0 C0.8906012 -0.01813751 1.78120239 -0.03627502 2.6987915 -0.05496216 C3.48841278 -0.07650864 4.27803406 -0.09805511 5.09158325 -0.12025452 C7.16802979 0.08151245 7.16802979 0.08151245 10.16802979 2.08151245 C10.43267822 4.22042847 10.43267822 4.22042847 10.27740479 6.8354187 C10.22713135 7.77192261 10.17685791 8.70842651 10.12506104 9.67330933 C10.05674072 10.65364136 9.98842041 11.63397339 9.91802979 12.64401245 C9.86517822 13.62821167 9.81232666 14.61241089 9.75787354 15.62643433 C9.32533862 22.92420361 9.32533862 22.92420361 8.16802979 24.08151245 C6.462392 24.23891851 4.75075734 24.33244637 3.03912354 24.3979187 C2.00465088 24.43981323 0.97017822 24.48170776 -0.09564209 24.52487183 C-1.18425537 24.56418823 -2.27286865 24.60350464 -3.39447021 24.64401245 C-5.03319092 24.70878784 -5.03319092 24.70878784 -6.70501709 24.77487183 C-9.41386585 24.88133313 -12.12281014 24.98334762 -14.83197021 25.08151245 C-14.8267334 26.02768433 -14.82149658 26.9738562 -14.81610107 27.94869995 C-14.79766343 31.54211436 -14.78640041 35.13552485 -14.77703857 38.72897339 C-14.77208513 40.26869414 -14.76532054 41.80841039 -14.75653076 43.34811401 C-14.61915576 68.0756148 -14.61915576 68.0756148 -16.36737061 78.17428589 C-16.84131215 81.1399695 -16.90006722 83.84795799 -16.82415771 86.84713745 C-16.8073999 87.90159058 -16.79064209 88.9560437 -16.77337646 90.04244995 C-16.72878685 92.2509473 -16.67659646 94.45930319 -16.61712646 96.66744995 C-16.60294678 97.71674683 -16.58876709 98.7660437 -16.57415771 99.84713745 C-16.55208252 100.80394409 -16.53000732 101.76075073 -16.50726318 102.74655151 C-16.6144165 103.51708862 -16.72156982 104.28762573 -16.83197021 105.08151245 C-20.09816551 107.25897598 -21.08142856 107.33757675 -24.86712646 107.34713745 C-26.32795654 107.35100464 -26.32795654 107.35100464 -27.81829834 107.35494995 C-28.83343506 107.34721558 -29.84857178 107.3394812 -30.89447021 107.33151245 C-31.91347412 107.33924683 -32.93247803 107.3469812 -33.98236084 107.35494995 C-34.9549585 107.35237183 -35.92755615 107.3497937 -36.92962646 107.34713745 C-37.82173828 107.34488159 -38.7138501 107.34262573 -39.63299561 107.34030151 C-41.83197021 107.08151245 -41.83197021 107.08151245 -43.83197021 105.08151245 C-43.95003608 102.1701111 -43.94358857 99.36261338 -43.84368896 96.45651245 C-43.82135193 95.57368591 -43.79901489 94.69085938 -43.77600098 93.78128052 C-43.70020852 90.88100235 -43.6099385 87.98136681 -43.51947021 85.08151245 C-43.46463553 83.09162764 -43.4106858 81.10171826 -43.35760498 79.11178589 C-43.22068659 74.07006657 -43.07181915 69.02878185 -42.91912842 63.98751831 C-42.78526328 59.52422221 -42.66049243 55.06067793 -42.53509521 50.59713745 C-42.31298944 42.75820316 -42.07760619 34.91974846 -41.83197021 27.08151245 C-42.70297363 27.29009888 -43.57397705 27.4986853 -44.47137451 27.71359253 C-45.62548828 27.98582642 -46.77960205 28.2580603 -47.96868896 28.5385437 C-49.67738159 28.94423584 -49.67738159 28.94423584 -51.42059326 29.35812378 C-55.87244636 30.30214731 -60.29596423 30.78457301 -64.83197021 31.08151245 C-66.796332 27.80741616 -67.03101791 25.51655364 -66.84368896 21.72994995 C-66.79663818 20.7141687 -66.7495874 19.69838745 -66.70111084 18.65182495 C-66.61119873 17.07014526 -66.61119873 17.07014526 -66.51947021 15.45651245 C-66.47113037 14.39432495 -66.42279053 13.33213745 -66.37298584 12.23776245 C-65.97775014 4.3730723 -65.97775014 4.3730723 -64.83197021 2.08151245 C-62.52267456 1.67857361 -62.52267456 1.67857361 -59.5043335 1.47628784 C-57.8673349 1.36620895 -57.8673349 1.36620895 -56.19726562 1.25390625 C-51.15628847 0.9956724 -46.12082161 0.84941625 -41.07415771 0.7651062 C-40.00505157 0.7443251 -38.93594543 0.72354401 -37.83444214 0.70213318 C-34.45867427 0.63751272 -31.08283572 0.57828485 -27.70697021 0.51901245 C-25.43743264 0.47572294 -23.16790129 0.43210572 -20.89837646 0.38815308 C-18.70697581 0.3468397 -16.5155697 0.30581428 -14.32415771 0.2651062 C-13.31972626 0.24636948 -12.3152948 0.22763275 -11.28042603 0.20832825 C-9.37789682 0.17510139 -7.4752918 0.14590333 -5.57263184 0.12127686 C-3.71484359 0.09432211 -1.85721463 0.05345611 0 0 Z M-58.83197021 19.08151245 C-58.83197021 19.74151245 -58.83197021 20.40151245 -58.83197021 21.08151245 C-58.17197021 21.08151245 -57.51197021 21.08151245 -56.83197021 21.08151245 C-56.83197021 20.42151245 -56.83197021 19.76151245 -56.83197021 19.08151245 C-57.49197021 19.08151245 -58.15197021 19.08151245 -58.83197021 19.08151245 Z M-39.83197021 72.08151245 C-40.93299663 80.43751653 -40.93291326 88.66959208 -40.83197021 97.08151245 C-40.17197021 97.08151245 -39.51197021 97.08151245 -38.83197021 97.08151245 C-38.66228356 94.41500782 -38.496152 91.74835719 -38.33197021 89.08151245 C-38.26042725 87.96582886 -38.26042725 87.96582886 -38.18743896 86.8276062 C-37.88761277 81.90189021 -37.78710792 77.01636469 -37.83197021 72.08151245 C-38.49197021 72.08151245 -39.15197021 72.08151245 -39.83197021 72.08151245 Z " fill="currentColor" transform="translate(421.83197021484375,30.918487548828125)"/>
<path d="M0 0 C0 0.66 0 1.32 0 2 C0.99 1.67 1.98 1.34 3 1 C3.66 1.33 4.32 1.66 5 2 C5 2.66 5 3.32 5 4 C3.67935547 3.87431641 3.67935547 3.87431641 2.33203125 3.74609375 C1.17058594 3.64425781 0.00914062 3.54242188 -1.1875 3.4375 C-2.91033203 3.28087891 -2.91033203 3.28087891 -4.66796875 3.12109375 C-7.68631199 3.01140015 -10.08923936 3.25997611 -13 4 C-11.98292969 3.98259766 -11.98292969 3.98259766 -10.9453125 3.96484375 C-7.96198668 3.93591954 -4.98316447 3.95867152 -2 4 C-1.05898438 4.00386719 -0.11796875 4.00773437 0.8515625 4.01171875 C1.72554687 4.04910156 2.59953125 4.08648437 3.5 4.125 C4.69109375 4.15980469 4.69109375 4.15980469 5.90625 4.1953125 C8 5 8 5 9.47583008 7.53515625 C11.16910616 11.38442329 12.36127206 15.19710873 13.48046875 19.2421875 C13.80704216 20.39474533 13.80704216 20.39474533 14.14021301 21.57058716 C14.82828278 24.00384262 15.50800961 26.43933646 16.1875 28.875 C16.65504789 30.53400957 17.12314136 32.19286549 17.59179688 33.8515625 C18.73418243 37.89929181 19.86909616 41.9490485 21 46 C23.83342202 43.16657798 24.92288631 39.69093417 26.40625 36.03515625 C26.73161743 35.24604355 27.05698486 34.45693085 27.39221191 33.64390564 C28.43288002 31.1186881 29.46695434 28.59084444 30.5 26.0625 C31.53364152 23.53798316 32.56874627 21.01410528 33.60778809 18.49180603 C34.25439981 16.92167913 34.89782438 15.35023509 35.53771973 13.77735901 C36.83142328 10.63206333 38.10718203 7.83922696 40 5 C41.9453125 4.48828125 41.9453125 4.48828125 44.125 4.3125 C45.40375 4.209375 46.6825 4.10625 48 4 C47.34 4 46.68 4 46 4 C46 3.34 46 2.68 46 2 C45.34 2 44.68 2 44 2 C44 2.66 44 3.32 44 4 C43.01 4 42.02 4 41 4 C41.66 2.68 42.32 1.36 43 0 C54.66193434 -0.62289264 54.66193434 -0.62289264 59.625 1.6875 C64.05470938 6.00063808 65.37853343 9.48341688 65.67700195 15.6315918 C65.72652622 16.60535405 65.72652622 16.60535405 65.77705097 17.59878826 C66.16282858 26.0248251 66.16430974 34.4614926 66.16796875 42.89453125 C66.17119043 44.66192144 66.17455515 46.42931138 66.17805481 48.19670105 C66.18398691 51.86494568 66.18590026 55.53316693 66.18530273 59.20141602 C66.18520003 63.90793999 66.19898882 68.61431676 66.21607494 73.32080555 C66.22715493 76.95379841 66.22922338 80.58675477 66.22869301 84.2197628 C66.2298739 85.95696215 66.23430181 87.69416241 66.24202538 89.43134499 C66.25176853 91.84341802 66.24897288 94.25515852 66.24291992 96.66723633 C66.24853943 97.38453918 66.25415894 98.10184204 66.25994873 98.84088135 C66.22833457 103.77166543 66.22833457 103.77166543 64 106 C61.70922852 106.24291992 61.70922852 106.24291992 58.87890625 106.23046875 C57.35233398 106.22756836 57.35233398 106.22756836 55.79492188 106.22460938 C54.72822266 106.21236328 53.66152344 106.20011719 52.5625 106.1875 C51.49966797 106.18685547 50.43683594 106.18621094 49.34179688 106.18554688 C41.42137729 106.1404591 41.42137729 106.1404591 38 105 C36.79506138 101.38518415 37.13377632 98.34834645 37.4375 94.625 C37.96507573 87.40571641 38.11158199 80.24043149 38 73 C37.48050781 74.15757813 36.96101562 75.31515625 36.42578125 76.5078125 C35.72184004 78.04709729 35.01738559 79.58614744 34.3125 81.125 C33.97283203 81.88554688 33.63316406 82.64609375 33.28320312 83.4296875 C28.23069853 94.38465074 28.23069853 94.38465074 23 97 C15.82483927 97.57864199 15.82483927 97.57864199 12.9453125 95.55859375 C10.18544533 91.92864797 9.0749341 88.07631544 7.75 83.75 C7.481875 82.90953125 7.21375 82.0690625 6.9375 81.203125 C6.28069352 79.13887606 5.63885073 77.06987637 5 75 C4.94465088 75.87325928 4.88930176 76.74651855 4.83227539 77.64624023 C4.62535976 80.87614798 4.4143181 84.10575153 4.20043945 87.33520508 C4.1086044 88.73483636 4.01843047 90.13457764 3.92993164 91.53442383 C3.80267777 93.54276004 3.6690167 95.55068707 3.53515625 97.55859375 C3.456604 98.76829834 3.37805176 99.97800293 3.29711914 101.22436523 C3 104 3 104 2 105 C-3.81024461 105.91740704 -9.56614825 106.12902956 -15.4375 106.1875 C-16.147854 106.20047119 -16.85820801 106.21344238 -17.59008789 106.22680664 C-19.39497308 106.23006103 -21.19929576 106.1228226 -23 106 C-25 104 -25 104 -25.15905762 101.80918884 C-25.09482605 100.43785545 -25.09482605 100.43785545 -25.02929688 99.03881836 C-24.98550903 97.99464249 -24.94172119 96.95046661 -24.89660645 95.87464905 C-24.83791382 94.7287883 -24.77922119 93.58292755 -24.71875 92.40234375 C-24.66553589 91.20463852 -24.61232178 90.00693329 -24.55749512 88.77293396 C-24.41110631 85.51828132 -24.2556417 82.26420947 -24.09661865 79.01015472 C-23.93732861 75.69611925 -23.79162704 72.38149027 -23.64453125 69.06689453 C-23.34164833 62.27924466 -23.02260442 55.49244096 -22.69775391 48.70581055 C-22.53062312 45.21371659 -22.36680038 41.7214756 -22.2037735 38.22918797 C-22.04408739 34.82066562 -21.88123854 31.41229614 -21.71875 28.00390625 C-21.661427 26.77249405 -21.604104 25.54108185 -21.54504395 24.27235413 C-20.49133315 2.49133315 -20.49133315 2.49133315 -19 1 C-12.69151876 -0.26169625 -6.41162186 -0.09475303 0 0 Z M23 59 C24 61 24 61 24 61 Z M-20 65 C-19 69 -19 69 -19 69 Z M27 67 C28 69 28 69 28 69 Z M-20 71 C-22.53715066 78.61145197 -22.30816086 85.15103487 -21 93 C-20.67 93 -20.34 93 -20 93 C-19.29223008 85.64424835 -18.85284308 78.3905476 -19 71 C-19.33 71 -19.66 71 -20 71 Z M30 71 C29.67 71.99 29.34 72.98 29 74 C29.66 74 30.32 74 31 74 C30.67 73.01 30.34 72.02 30 71 Z M-21 97 C-21 99.31 -21 101.62 -21 104 C-20.34 103.67 -19.68 103.34 -19 103 C-19 101.02 -19 99.04 -19 97 C-19.66 97 -20.32 97 -21 97 Z " fill="currentColor" transform="translate(547,32)"/>
<path d="M0 0 C2.25413622 -0.07140869 4.5072931 -0.11977835 6.76220703 -0.15802002 C8.02548828 -0.18436523 9.28876953 -0.21071045 10.59033203 -0.237854 C12.03666016 -0.07651978 12.03666016 -0.07651978 13.51220703 0.08807373 C16.40305312 4.42434287 15.60540403 8.08026205 15.32470703 13.15057373 C15.293125 14.07418701 15.26154297 14.99780029 15.22900391 15.94940186 C15.18453125 16.83176514 15.14005859 17.71412842 15.09423828 18.62322998 C15.03586792 19.83571411 15.03586792 19.83571411 14.97631836 21.07269287 C14.51220703 23.08807373 14.51220703 23.08807373 11.51220703 25.08807373 C8.67626765 25.53563104 5.90042817 25.88425017 3.04736328 26.15838623 C2.21764511 26.24434052 1.38792694 26.3302948 0.5330658 26.41885376 C-1.22080814 26.59908546 -2.97509371 26.77534921 -4.72973633 26.94793701 C-7.41234586 27.21180024 -10.09363711 27.48669491 -12.77490234 27.76385498 C-14.47991496 27.93767584 -16.18499123 28.11087368 -17.89013672 28.28338623 C-18.69128403 28.36460724 -19.49243134 28.44582825 -20.31785583 28.5295105 C-23.73257599 28.86437545 -27.05278828 29.08807373 -30.48779297 29.08807373 C-30.81779297 33.37807373 -31.14779297 37.66807373 -31.48779297 42.08807373 C-30.00279297 41.59307373 -30.00279297 41.59307373 -28.48779297 41.08807373 C-27.14904949 40.94296698 -25.80521151 40.84169917 -24.46044922 40.77166748 C-23.27962769 40.70870483 -23.27962769 40.70870483 -22.07495117 40.64447021 C-20.82524536 40.58561646 -20.82524536 40.58561646 -19.55029297 40.52557373 C-18.70233154 40.48311523 -17.85437012 40.44065674 -16.98071289 40.39691162 C-10.48046615 40.09013899 -3.99525952 39.97117313 2.51220703 40.08807373 C3.93550867 47.02666922 3.51220703 54.02100435 3.51220703 61.08807373 C-0.48847247 62.90082975 -4.19065842 63.60333315 -8.53857422 64.15838623 C-9.19738083 64.24434052 -9.85618744 64.3302948 -10.53495789 64.41885376 C-12.62265906 64.68979869 -14.71139043 64.95156962 -16.80029297 65.21307373 C-18.22289716 65.39606095 -19.64542426 65.57964852 -21.06787109 65.76385498 C-24.54031369 66.21221038 -28.01374002 66.65235043 -31.48779297 67.08807373 C-32.14779297 71.04807373 -32.80779297 75.00807373 -33.48779297 79.08807373 C-31.64056641 79.01588623 -29.79333984 78.94369873 -27.89013672 78.86932373 C-20.42346927 78.58374117 -12.95602009 78.32908658 -5.48779297 78.08807373 C-4.11856689 78.04070068 -4.11856689 78.04070068 -2.72167969 77.99237061 C-0.6025278 77.92405325 1.5173593 77.87951748 3.63720703 77.83807373 C5.31169922 77.79940186 5.31169922 77.79940186 7.02001953 77.75994873 C7.84244141 77.86822998 8.66486328 77.97651123 9.51220703 78.08807373 C12.3602052 82.36007098 11.84239019 86.06605659 11.82470703 91.08807373 C11.84082031 92.00330811 11.85693359 92.91854248 11.87353516 93.86151123 C11.87417969 94.74065186 11.87482422 95.61979248 11.87548828 96.52557373 C11.87846924 97.32865967 11.8814502 98.13174561 11.88452148 98.95916748 C11.40764526 101.68596136 10.68607079 102.39859924 8.51220703 104.08807373 C6.0994873 104.56272888 6.0994873 104.56272888 3.20556641 104.70404053 C2.1201355 104.76387619 1.03470459 104.82371185 -0.08361816 104.88536072 C-1.25855835 104.9354982 -2.43349854 104.98563568 -3.64404297 105.03729248 C-4.85668823 105.09963577 -6.0693335 105.16197906 -7.31872559 105.22621155 C-11.20788933 105.42255844 -15.09768898 105.59894744 -18.98779297 105.77557373 C-21.57900084 105.90519886 -24.17014799 106.03604397 -26.76123047 106.16815186 C-52.3808544 107.43852353 -52.3808544 107.43852353 -58.48779297 107.08807373 C-60.31972163 105.25614507 -59.64011205 102.34787228 -59.65576172 99.88885498 C-59.65990585 99.23905167 -59.66404999 98.58924835 -59.6683197 97.91975403 C-59.67816406 95.74663918 -59.67794119 93.57370791 -59.67529297 91.40057373 C-59.67535339 90.65132629 -59.67541382 89.90207886 -59.67547607 89.13012695 C-59.64932624 66.10306959 -58.27837682 43.10260311 -56.48779297 20.15057373 C-56.38168701 18.74074219 -56.38168701 18.74074219 -56.2734375 17.3024292 C-55.84845036 12.31882729 -55.04137713 7.84592521 -53.48779297 3.08807373 C-47.60911406 2.28102234 -41.78875308 1.8222186 -35.86279297 1.55291748 C-34.95762939 1.50994034 -34.05246582 1.4669632 -33.11987305 1.42268372 C-31.21052185 1.33294429 -29.30109553 1.24479058 -27.39160156 1.15814209 C-24.52366311 1.02721132 -21.65613812 0.88904759 -18.78857422 0.75018311 C-12.52709531 0.45408517 -6.26445195 0.22177635 0 0 Z M-33.48779297 43.08807373 C-32.48779297 45.08807373 -32.48779297 45.08807373 -32.48779297 45.08807373 Z M-36.48779297 56.08807373 C-36.48779297 56.74807373 -36.48779297 57.40807373 -36.48779297 58.08807373 C-35.82779297 58.08807373 -35.16779297 58.08807373 -34.48779297 58.08807373 C-34.48779297 57.42807373 -34.48779297 56.76807373 -34.48779297 56.08807373 C-35.14779297 56.08807373 -35.80779297 56.08807373 -36.48779297 56.08807373 Z M-34.48779297 59.08807373 C-34.81779297 59.74807373 -35.14779297 60.40807373 -35.48779297 61.08807373 C-34.49779297 60.75807373 -33.50779297 60.42807373 -32.48779297 60.08807373 C-33.14779297 59.75807373 -33.80779297 59.42807373 -34.48779297 59.08807373 Z M-38.48779297 60.08807373 C-38.15779297 61.40807373 -37.82779297 62.72807373 -37.48779297 64.08807373 C-37.15779297 62.76807373 -36.82779297 61.44807373 -36.48779297 60.08807373 C-37.14779297 60.08807373 -37.80779297 60.08807373 -38.48779297 60.08807373 Z M-24.48779297 96.08807373 C-24.81779297 96.74807373 -25.14779297 97.40807373 -25.48779297 98.08807373 C-24.49779297 98.08807373 -23.50779297 98.08807373 -22.48779297 98.08807373 C-22.48779297 97.42807373 -22.48779297 96.76807373 -22.48779297 96.08807373 C-23.14779297 96.08807373 -23.80779297 96.08807373 -24.48779297 96.08807373 Z M-42.48779297 97.08807373 C-42.15779297 98.07807373 -41.82779297 99.06807373 -41.48779297 100.08807373 C-41.15779297 99.09807373 -40.82779297 98.10807373 -40.48779297 97.08807373 C-41.14779297 97.08807373 -41.80779297 97.08807373 -42.48779297 97.08807373 Z M-47.48779297 99.08807373 C-47.48779297 99.74807373 -47.48779297 100.40807373 -47.48779297 101.08807373 C-46.82779297 101.08807373 -46.16779297 101.08807373 -45.48779297 101.08807373 C-45.48779297 100.42807373 -45.48779297 99.76807373 -45.48779297 99.08807373 C-46.14779297 99.08807373 -46.80779297 99.08807373 -47.48779297 99.08807373 Z M-37.48779297 99.08807373 C-37.15779297 99.74807373 -36.82779297 100.40807373 -36.48779297 101.08807373 C-36.15779297 100.42807373 -35.82779297 99.76807373 -35.48779297 99.08807373 C-36.14779297 99.08807373 -36.80779297 99.08807373 -37.48779297 99.08807373 Z " fill="currentColor" transform="translate(678.48779296875,30.91192626953125)"/>
<path d="M0 0 C4.12560223 3.28550984 6.73723809 7.15107381 7.7578125 12.41015625 C8.09965339 16.06564836 8.20850945 19.70471384 8.25 23.375 C8.25950684 24.08970459 8.26901367 24.80440918 8.27880859 25.54077148 C8.2451978 30.7548022 8.2451978 30.7548022 6 33 C3.86108398 33.24291992 3.86108398 33.24291992 1.24609375 33.23046875 C-0.15866211 33.22756836 -0.15866211 33.22756836 -1.59179688 33.22460938 C-3.06229492 33.20624023 -3.06229492 33.20624023 -4.5625 33.1875 C-5.54669922 33.18685547 -6.53089844 33.18621094 -7.54492188 33.18554688 C-14.85982468 33.14017532 -14.85982468 33.14017532 -16 32 C-16.39943176 29.47804033 -16.75079848 26.97036344 -17.0625 24.4375 C-17.15337891 23.72658203 -17.24425781 23.01566406 -17.33789062 22.28320312 C-17.56239503 20.52261597 -17.78168397 18.76136522 -18 17 C-19.65 17 -21.3 17 -23 17 C-25.80303202 21.37272995 -26.61981101 24.72076663 -25.81640625 29.76953125 C-23.5498477 35.96189935 -16.8261398 39.15131625 -11.5 42.4375 C-3.57862813 47.34853083 3.66885043 53.66002907 6.578125 62.8203125 C8.28163127 71.62176157 7.51007728 80.21712329 3 88 C-2.4169467 95.91285631 -9.10981861 99.91687508 -18.46875 101.6796875 C-34.45804387 103.70302407 -47.46076161 99.0065928 -61 91 C-60.39733215 86.49272353 -58.63400206 83.1412037 -56.4375 79.1875 C-56.10814453 78.59001953 -55.77878906 77.99253906 -55.43945312 77.37695312 C-54.63226733 75.91466002 -53.81695083 74.4568601 -53 73 C-48.28195534 72.50336372 -45.2291498 74.25483602 -41.25 76.5 C-35.56739654 79.5161568 -31.44882653 81.16290314 -25 80 C-22.6757814 78.59555724 -22.6757814 78.59555724 -22 76 C-21.68474782 72.53043258 -21.68474782 72.53043258 -23 69 C-27.08801729 64.6267722 -31.97088668 61.69571337 -37 58.5 C-52.75721978 48.48564104 -52.75721978 48.48564104 -55 39 C-56.27485192 27.56241341 -54.96398261 18.0384828 -48.16796875 8.40234375 C-36.95660501 -5.19723949 -15.43164729 -8.83670343 0 0 Z M-14 51 C-13 53 -13 53 -13 53 Z M-8 76 C-8 76.66 -8 77.32 -8 78 C-6.68 78 -5.36 78 -4 78 C-4 77.34 -4 76.68 -4 76 C-5.32 76 -6.64 76 -8 76 Z M-9 79 C-9 79.66 -9 80.32 -9 81 C-8.01 81.33 -7.02 81.66 -6 82 C-6 81.01 -6 80.02 -6 79 C-6.99 79 -7.98 79 -9 79 Z M-2 80 C-1 82 -1 82 -1 82 Z " fill="currentColor" transform="translate(759,36)"/>
<path d="M0 0 C0 3.96 0 7.92 0 12 C-15.3780791 19.45714788 -30.7904983 26.81814165 -46.32324219 33.94799805 C-48.00788574 34.72397339 -48.00788574 34.72397339 -49.7265625 35.515625 C-50.72252441 35.97227539 -51.71848633 36.42892578 -52.74462891 36.89941406 C-54.91607001 37.80761141 -54.91607001 37.80761141 -56 39 C-54.87207031 39.47832275 -53.74414062 39.95664551 -52.58203125 40.44946289 C-48.31732321 42.25828912 -44.05312415 44.06831269 -39.7890625 45.87866211 C-37.95846768 46.65567141 -36.12774275 47.43237426 -34.296875 48.20874023 C-22.83363517 53.06993322 -11.39413442 57.9788048 0 63 C0 66.96 0 70.92 0 75 C-12.05669667 70.5561141 -23.71735176 65.31734632 -35.4375 60.0625 C-39.37301921 58.30186454 -43.30937355 56.54310451 -47.24609375 54.78515625 C-48.18222504 54.36682526 -49.11835632 53.94849426 -50.08285522 53.51748657 C-57.35813232 50.27197592 -64.66167085 47.10033551 -72 44 C-72 41.03 -72 38.06 -72 35 C-62.91002376 30.4318775 -53.81791274 25.86803567 -44.72302437 21.30970001 C-40.50031825 19.19312054 -36.27837173 17.07505397 -32.05810547 14.95361328 C-27.98797727 12.90771178 -23.9159272 10.86568494 -19.84249496 8.82637024 C-18.2860136 8.04627686 -16.73023893 7.26477185 -15.17517471 6.4818573 C-13.00289471 5.38849558 -10.82819315 4.30010612 -8.65283203 3.21289062 C-8.00547089 2.88561478 -7.35810974 2.55833893 -6.69113159 2.22114563 C-2.22810432 0 -2.22810432 0 0 0 Z " fill="currentColor" transform="translate(97,45)"/>
<path d="M0 0 C4.48136585 1.38411578 8.54988272 3.15338941 12.73974609 5.25634766 C13.38435791 5.57850754 14.02896973 5.90066742 14.69311523 6.23258972 C16.80514335 7.28929568 18.91428716 8.35162589 21.0234375 9.4140625 C22.49442307 10.15142203 23.96558667 10.88842652 25.43692017 11.62509155 C29.29542333 13.55814808 33.15149897 15.49599879 37.00708008 17.43487549 C40.94726888 19.41522762 44.88974665 21.39101174 48.83203125 23.3671875 C56.5569284 27.2403377 64.27926568 31.11855831 72 35 C72 37.97 72 40.94 72 44 C32.73271304 61.27165756 32.73271304 61.27165756 15.44464111 68.78018188 C14.14908277 69.34301641 12.85379402 69.90647192 11.55877686 70.47055054 C9.77957331 71.24524024 7.99919661 72.01723399 6.21875 72.7890625 C5.22810547 73.21912598 4.23746094 73.64918945 3.21679688 74.09228516 C1 75 1 75 0 75 C0 71.04 0 67.08 0 63 C10.32510582 58.12555336 20.78744951 53.65672825 31.33300781 49.28417969 C34.1567135 48.11183318 36.97679689 46.9310417 39.796875 45.75 C41.59614053 45.00209 43.39561209 44.25467543 45.1953125 43.5078125 C46.03587189 43.15478058 46.87643127 42.80174866 47.74246216 42.4380188 C48.5211264 42.11703217 49.29979065 41.79604553 50.10205078 41.46533203 C50.78453888 41.18142609 51.46702698 40.89752014 52.17019653 40.60501099 C54 40 54 40 57 40 C57 39.34 57 38.68 57 38 C55.99598145 37.8618689 55.99598145 37.8618689 54.97167969 37.72094727 C51.20049808 36.80603605 47.90729567 35.18374493 44.453125 33.46484375 C43.72365662 33.10789932 42.99418823 32.7509549 42.24261475 32.38319397 C39.90902271 31.24007545 37.57939381 30.08914573 35.25 28.9375 C32.21461806 27.44441848 29.17769744 25.95448303 26.140625 24.46484375 C25.3930896 24.09749115 24.6455542 23.73013855 23.87536621 23.35165405 C15.96198042 19.47181595 7.98649758 15.72648304 0 12 C0 8.04 0 4.08 0 0 Z " fill="currentColor" transform="translate(935,45)"/>
</svg>
